<?xml version="1.0" encoding="iso-8859-1"?>
<!-- Generator: Adobe Illustrator 19.0.0, SVG Export Plug-In . SVG Version: 6.00 Build 0)  -->
<svg version="1.1" id="Capa_1" xmlns="http://www.w3.org/2000/svg" xmlns:xlink="http://www.w3.org/1999/xlink" x="0px" y="0px"
	 viewBox="0 0 512.001 512.001" style="enable-background:new 0 0 512.001 512.001;" xml:space="preserve">
<g>
	<g>
		<path d="M429.044,81.821c-1.925-1.55-47.758-37.805-101.023-24.194c-6.56,1.677-12.771,4.181-18.584,7.426
			c-0.74-2.343-1.636-4.779-2.786-7.246c-23.284-49.962-77.269-57.45-79.556-57.744c-2.949-0.383-5.834,1.017-7.371,3.557
			c-1.538,2.54-1.431,5.75,0.27,8.183c0.089,0.127,5.755,8.314,13.005,22.679c-49.911-32.332-111.259-8.678-113.856-7.651
			c-2.831,1.119-4.702,3.838-4.74,6.882c-0.038,3.043,1.769,5.808,4.57,6.998c0.608,0.258,43.068,18.583,88.76,55.943
			c-12.002-1.606-24.913-1.151-38.231,1.446c-59.772,11.658-87.529,72.102-88.682,74.669c-1.282,2.856-0.655,6.208,1.572,8.407
			c1.435,1.417,3.339,2.165,5.272,2.164c1.067,0,2.144-0.228,3.153-0.696c0.652-0.303,53.826-24.507,126.329-26.351
			c1.974,11.926,8.011,22.418,16.62,30.063c-19.573,48.838-31.156,116.706-34.432,201.845c-1.922,49.952-0.265,91.875,0.619,108.801
			h-8.081c-4.142,0-7.5,3.358-7.5,7.5c0,4.142,3.358,7.5,7.5,7.5h80.161c4.142,0,7.5-3.358,7.5-7.5c0-4.142-3.358-7.5-7.5-7.5
			h-9.461c-4.25-33.688-21.611-192.421,13.049-298.205c13.397-2.018,25.61-9.292,33.761-20.184
			c53.2,32.846,81.06,77.861,81.394,78.41c1.377,2.271,3.826,3.613,6.413,3.613c0.488,0,0.981-0.048,1.472-0.146
			c3.096-0.619,5.473-3.111,5.945-6.233c0.104-0.682,2.5-16.944,0.22-37.658c-3.077-27.958-13.332-50.725-29.653-65.838
			c-17.397-16.109-35.148-21.852-50.578-22.728c54.932-26.226,100.201-32.86,100.779-32.942c2.963-0.413,5.397-2.546,6.195-5.429
			C432.365,86.779,431.373,83.697,429.044,81.821z M142.983,35.673c20.366-4.225,54.11-6.882,82.39,11.735
			c12.019,7.913,23.573,19.804,30.909,31.808c2.16,3.534,6.776,4.65,10.31,2.489c3.535-2.16,4.649-6.776,2.489-10.31
			c-2.615-4.279-5.695-8.543-9.11-12.662c-6.194-16.485-12.719-29.801-17.881-39.254c15.783,5.761,38.688,18.321,50.965,44.665
			c1.555,3.336,2.541,6.749,3.366,10.024c-5.915,5.1-11.22,11.144-15.792,18.084c-7.546,11.454-12.777,25.012-15.325,39.342
			C221.88,81.053,169.947,49.77,142.983,35.673z M139.964,151.181c-14.063,3.28-25.888,6.858-34.961,9.946
			c11.98-17.289,34.294-41.854,67.369-48.304c24.53-4.785,47.142-1.361,63.667,9.639c0.233,0.155,0.473,0.293,0.716,0.419
			c6.136,6.152,12.182,12.657,18.042,19.516C208.474,138.513,167.461,144.767,139.964,151.181z M239.784,394.231
			c1.32,47.113,5.604,86.168,7.666,102.77h-32.47c-1.871-35.705-7.946-200.214,31.613-302.28c4.171,1.906,8.639,3.266,13.309,4.004
			C244.321,248.85,237.552,314.551,239.784,394.231z M268.026,184.373c-17.231,0-31.775-11.92-35.599-28.123
			c12.234,0.239,24.918,1.155,37.915,2.954c9.135,3.505,17.767,7.508,25.893,11.848
			C289.339,179.371,278.976,184.373,268.026,184.373z M364.982,161.767c20.73,19.196,25.277,49.344,25.744,69.447
			c-17.09-21.61-51.12-57.675-102.091-80.638c4.452-2.148,9.971-4.331,16.247-5.826C326.901,139.504,347.122,145.23,364.982,161.767
			z M279.768,135.342c5.583-35.772,28.992-57.312,51.965-63.182c6.961-1.779,13.823-2.534,20.458-2.534
			c21.109,0,39.921,7.642,52.278,14.28C378.841,89.809,330.463,104.064,279.768,135.342z"/>
	</g>
</g>
<g>
</g>
<g>
</g>
<g>
</g>
<g>
</g>
<g>
</g>
<g>
</g>
<g>
</g>
<g>
</g>
<g>
</g>
<g>
</g>
<g>
</g>
<g>
</g>
<g>
</g>
<g>
</g>
<g>
</g>
</svg>
